<?xml version="1.0" encoding="utf-8"?>
<!-- Generator: Adobe Illustrator 14.0.0, SVG Export Plug-In . SVG Version: 6.00 Build 43363)  -->
<!DOCTYPE svg PUBLIC "-//W3C//DTD SVG 1.1//EN" "http://www.w3.org/Graphics/SVG/1.1/DTD/svg11.dtd">
<svg version="1.1"
	 id="svg2" inkscape:output_extension="org.inkscape.output.svg.inkscape" inkscape:export-filename="C:\Documents and Settings\James\Desktop\galaxy5.png" xmlns:rdf="http://www.w3.org/1999/02/22-rdf-syntax-ns#" xmlns:sodipodi="http://sodipodi.sourceforge.net/DTD/sodipodi-0.dtd" xmlns:inkscape="http://www.inkscape.org/namespaces/inkscape" xmlns:dc="http://purl.org/dc/elements/1.1/" xmlns:svg="http://www.w3.org/2000/svg" xmlns:cc="http://creativecommons.org/ns#" sodipodi:version="0.32" inkscape:version="0.46" inkscape:export-ydpi="90" inkscape:export-xdpi="90" sodipodi:docname="galaxy6.svg"
	 xmlns="http://www.w3.org/2000/svg" xmlns:xlink="http://www.w3.org/1999/xlink" x="0px" y="0px" width="744.094px"
	 height="1052.363px" viewBox="0 0 744.094 1052.363" enable-background="new 0 0 744.094 1052.363" xml:space="preserve">
<filter  id="filter7287" inkscape:collect="always">
	<feGaussianBlur  id="feGaussianBlur7289" stdDeviation="24.584644" inkscape:collect="always"></feGaussianBlur>
</filter>
<filter  x="-0.04734838" y="-0.10363571" width="1.0946968" height="1.2072714" id="filter7267" inkscape:collect="always">
	<feGaussianBlur  id="feGaussianBlur7269" stdDeviation="31.469382" inkscape:collect="always"></feGaussianBlur>
</filter>
<filter  id="filter6744" inkscape:collect="always">
	<feGaussianBlur  id="feGaussianBlur6746" stdDeviation="17.761673" inkscape:collect="always"></feGaussianBlur>
</filter>
<rect x="1645.478" y="1582.681" fill="#161602" stroke="#FFFFFF" width="3785.417" height="3553.804"/>
<defs>
	
	
		<inkscape:perspective  id="perspective10" inkscape:vp_x="0 : 526.18109 : 1" inkscape:vp_y="0 : 1000 : 0" inkscape:vp_z="744.09448 : 526.18109 : 1" sodipodi:type="inkscape:persp3d" inkscape:persp3d-origin="372.04724 : 350.78739 : 1">
		</inkscape:perspective>
	
		<inkscape:perspective  id="perspective17616" inkscape:vp_x="0 : 526.18109 : 1" inkscape:vp_y="0 : 1000 : 0" inkscape:vp_z="744.09448 : 526.18109 : 1" sodipodi:type="inkscape:persp3d" inkscape:persp3d-origin="372.04724 : 350.78739 : 1">
		</inkscape:perspective>
	
		<inkscape:perspective  id="perspective3124" inkscape:vp_x="0 : 526.18109 : 1" inkscape:vp_y="0 : 1000 : 0" inkscape:vp_z="744.09448 : 526.18109 : 1" sodipodi:type="inkscape:persp3d" inkscape:persp3d-origin="372.04724 : 350.78739 : 1">
		</inkscape:perspective>
</defs>
<sodipodi:namedview  id="base" showguides="true" showgrid="false" inkscape:cy="-3570.0438" inkscape:cx="-10523.803" inkscape:zoom="0.0285" objecttolerance="10" guidetolerance="10" gridtolerance="10000" borderopacity="1.0" bordercolor="#666666" pagecolor="#ffffff" inkscape:guide-bbox="true" inkscape:window-y="0" inkscape:window-x="0" inkscape:window-height="994" inkscape:window-width="1280" inkscape:current-layer="layer1" inkscape:document-units="px" inkscape:pageshadow="2" inkscape:pageopacity="0.0">
	</sodipodi:namedview>
<rect id="rect17550" x="-7656.389" y="-6691.926" inkscape:export-ydpi="90" inkscape:export-xdpi="90" opacity="0.8814" fill="none" stroke="#0000FF" stroke-width="136.6841" stroke-linejoin="round" stroke-opacity="0" enable-background="new    " width="15720.334" height="12411.732">
</rect>
<g>
	<g id="g3866" transform="matrix(1.0819892,0,0,1.0819892,-193.27801,555.66851)">
		
			<radialGradient id="path3823_1_" cx="-92.6054" cy="1630.2134" r="768.0276" gradientTransform="matrix(1.3877 0 0 -1.3877 195.8735 330.0683)" gradientUnits="userSpaceOnUse">
			<stop  offset="0" style="stop-color:#C7EEF3"/>
			<stop  offset="1" style="stop-color:#C7EEF3;stop-opacity:0"/>
		</radialGradient>
		
			<path id="path3823" sodipodi:cx="-1651.4286" sodipodi:cy="475.21933" sodipodi:ry="702.85712" sodipodi:rx="702.85712" sodipodi:type="arc" fill="url(#path3823_1_)" stroke="#FFFFFF" stroke-width="9.946" stroke-opacity="0" d="
			M1045.482-1932.192c0.159,540.201-437.629,978.248-977.829,978.406c-540.199,0.16-978.247-437.629-978.406-977.829
			c0-0.191,0-0.384,0-0.576c-0.159-540.198,437.63-978.245,977.831-978.405c540.198-0.16,978.245,437.63,978.404,977.827
			C1045.482-1932.575,1045.482-1932.382,1045.482-1932.192z"/>
		<g id="g3855">
			<g id="g3306" transform="matrix(1.8636419,0,0,1.8636419,-1022.0276,-1175.8836)">
				<g id="g3297" transform="matrix(1.1480631,0,0,1.1480631,295.55996,-106.15024)">
					
						<path id="path3254" sodipodi:cx="-264.28571" sodipodi:cy="462.36218" sodipodi:ry="258.57144" sodipodi:rx="258.57144" sodipodi:type="arc" fill="#786721" stroke="#000000" stroke-opacity="0" d="
						M533.425-270.182c0,154.95-125.611,280.562-280.561,280.562c-154.951,0-280.563-125.612-280.563-280.562
						c0-154.95,125.612-280.561,280.563-280.561C407.813-550.744,533.425-425.132,533.425-270.182z"/>
					<path id="path3256" fill="#00FFFF" fill-opacity="0.3824" stroke="#000000" stroke-opacity="0" d="M251.304-552.309
						c-26.323,0-51.791,3.656-75.954,10.443c-11.004,5.32-24.444,9.965-31.67,12.919c-5.837,2.047-11.689,4.074-17.53,6.104
						c-5.737,2.867-11.347,5.915-16.852,9.155c0.815,0.669,1.617,1.362,2.408,2.069c23.846,26.276,4.574,30.54-24.55,45.063
						c1.243,1.244,2.398,2.575,3.832,4.103c5.274,7.863,9.473,16.563,10.783,25.838c10.821,7.781,22.207,14.741,33.941,21.091
						c3.655,0.155,7.329,0.252,10.986,0.306c10.825,1.405,21.498,3.758,32.347,5.086c7.668,1.91,15.577,2.467,22.922,5.459
						c6.737,3.788,13.244,7.656,20.752,9.698c4.194,0.915,8.467,1.185,12.749,1.322c7.685-12.455,10.018-16.688,15.665-20.65
						c0.488-2.116,0.989-4.228,1.492-6.341c8.636-34.443,16.754-70.326,37.197-100.028c4.533-2.611,8.899-5.52,13.055-8.409
						c0.072-0.212,0.129-0.432,0.203-0.644c0.488-1.401,0.207-3.433,1.492-4.171c5.809-3.336,11.772-6.367,17.801-9.291
						C299.672-549.121,275.857-552.309,251.304-552.309z M344.753-536.304c-0.28,1.514-0.53,3.053-0.746,4.578
						c1.62-1.07,3.292-2.07,4.984-3.052C347.586-535.301,346.169-535.803,344.753-536.304z M297.757-520.402
						c-0.811,0.085-2.356,2.163-1.627,1.797c0.832-0.418,1.645-0.866,2.475-1.288C298.379-520.202,298.099-520.438,297.757-520.402z
						 M404.159-506.974c-2.06,1.975-4.076,4-6.035,6.104c-3.977,3.592-6.577,8.38-9.258,12.952
						c-5.034,6.755-11.223,12.501-16.411,19.124c-9.518,12.768-8.83,22.35-8.511,37.808c0.075,9.93,0.068,19.972,1.084,29.872
						c4.412,10.458,10.189,20.334,15.633,30.279c2.008,3.748,4.104,7.434,6.306,11.055c0.089,0.07,0.182,0.132,0.272,0.203
						c10.729,7.583,21.894,14.938,34.212,19.667c10.76,2.515,21.557,1.324,32.449,0.034c15.949-1.772,31.913-4.513,48.014-3.629
						c7.189,0.373,15.373,0.286,21.666,3.832C506.217-409.393,462.735-468.82,404.159-506.974z M376.084-503.007
						c-2.931,1.763-5.878,3.537-8.816,5.289c-1.315,2.136-2.493,4.309-3.527,6.545c2.031-2.033,4.114-4.02,6.273-5.934
						C372.409-498.819,374.348-500.837,376.084-503.007z M108.484-358.153c-0.572,0.42-1.159,0.832-1.73,1.255
						c0.315,0.123,0.642,0.205,0.984,0.204C108.16-356.698,108.443-357.509,108.484-358.153z M105.975-356.289
						c-0.407,0.303-0.814,0.612-1.221,0.915c1.199,0.217,2.397,0.425,3.594,0.645C107.555-355.258,106.765-355.754,105.975-356.289z
						 M481.469-331.57c-0.41,0.002-1.331,0.582-2.069,1.559c0.361,0.118,0.727,0.217,1.086,0.34
						C481.757-330.994,481.88-331.573,481.469-331.57z M511.816-313.225c-0.019-0.012-0.069-0.006-0.135,0.033
						c-0.156,0.093-0.318,0.178-0.475,0.271c0.102,0.068,0.203,0.136,0.305,0.205C511.717-312.982,511.87-313.192,511.816-313.225z
						 M496.015-291.694C497.237-290.76,498.203-291.856,496.015-291.694z M219.531-281.929c-0.166,0.117-0.341,0.223-0.508,0.339
						c1.575,0.902,3.111,1.847,4.578,2.85c0.597,0.077,1.199,0.126,1.797,0.203c0.03-0.574,0.216-1.074,0.679-1.458
						c0.634-0.526,1.088-0.889,1.695-1.39C225.016-281.522,222.282-281.716,219.531-281.929z M-29.045-261.686
						c0.671,19.028,3.244,37.59,7.527,55.473c12.044,9.434,24.337,18.554,36.553,27.77c1.912,0.485,3.338,0.881,3.459,0.916
						c7.94,2.349,15.761,5.145,23.532,8.036c2.408-1.922,2.15-1.524,0.679,0.237c7.858,2.929,15.669,5.987,23.566,8.748
						c19.897,7.997,39.649,16.418,59.101,25.432c23.886-3.498,48.41-1.271,72.325,1.118c50.586,6.141,100.889,14.902,149.566,30.043
						c0.441-0.086,0.746-0.145,1.221-0.238c0.124-0.025,0.249-0.043,0.373-0.068c4.898-3.819,9.874-7.536,14.445-11.631
						c7.105-6.365,9.488-9.006,13.767-14.004c-1.182-1.968-2.348-3.907-3.494-5.831c-2.586-5.779-5.542-11.433-7.764-17.362
						c-9.464-25.249-13.761-53.327-5.12-79.344c4.587-3.104,9.122-6.287,13.665-9.46c-1.119,0.001-2.214,0.005-3.39,0
						c-13.988-0.535-28.058-1.127-42.08-2.136c-6.69,2.506-13.885,4.12-22.481,4.814c-14.627,0.59-35.01,1.252-48.556-5.154
						c-1.932-0.914-3.55-2.4-5.324-3.594c-0.054-0.081-0.114-0.159-0.169-0.237c-7.115-0.845-14.213-1.933-21.261-3.357
						c-0.502-0.182-0.995-0.347-1.492-0.509c-4.069,2.62-8.139,5.247-12.206,7.868c-27.648,22.195-25.935,21.146-46.894,24.787
						c-22.766,0.038-45.358-2.865-67.748-7.088c-7.228-0.728-14.397-1.836-21.497-3.322c-10.368-2.406-21.311-4.988-31.874-8.512
						c-5.38-1.289-10.75-2.563-16.106-3.831c-10.758-3.127-21.557-6.038-32.246-9.392c-5.769-1.811-11.511-3.708-17.225-5.663
						c-0.314,0.041-0.634,0.101-0.949,0.136c-2.514-0.335-4.678-1.333-6.612-2.746C-25.526-260.412-27.28-261.049-29.045-261.686z
						 M372.184-236.391c-1.964,0.841-5.671,3.493-4.136,2.78c0.578-0.269,1.152-0.542,1.729-0.814
						c0.203-0.406,0.497-0.763,0.882-1.017C371.161-235.771,371.68-236.066,372.184-236.391z M469.974-156.369
						c0.376,1.351,0.745,2.719,1.119,4.069c0.196-0.352,0.456-0.675,0.78-0.949c0.415-0.352,0.836-0.671,1.255-1.017
						C472.087-154.971,471.031-155.688,469.974-156.369z M385.103-117.001c-1.951,1.568-3.866,3.155-5.764,4.78
						c1.114-0.41,2.212-0.833,3.323-1.254C383.577-114.581,384.402-115.756,385.103-117.001z M391.206-106.66
						c-3.317,2.066-6.519,3.968-9.629,5.697c2.605-0.023,6.188-0.167,11.664-0.34C392.578-103.094,391.899-104.878,391.206-106.66z
						 M426.199-77.771c-2.021,0.085-4.052,0.239-6.07,0.406c2.224,0.942,4.465,1.882,6.68,2.848
						C426.623-75.604,426.389-76.683,426.199-77.771z"/>
					<path id="path3258" fill="#FFEEAA" stroke="#000000" stroke-opacity="0" d="M252.703-549.906
						c-37.45,0-73.186,7.382-105.859,20.717c7.705,2.181,15.27,4.821,22.617,8.104c4.412,1.972,8.518,4.575,12.782,6.85
						c16.113,9.93,28.277,22.462,38.282,37.57c7.207,0.035,14.428,0.072,19.125,0.101c28.289,0.152,14.088,0.11,42.587,0.237
						l-32.89,23.837c-11.009-0.026-13.323-0.028-16.514-0.034c3.972,11.598,5.824,23.795,6.408,36.112
						c0.244,11.421-2.703,22.2-6.747,32.722c20.841,4.582,41.545,9.685,62.051,15.631c4.158,1.622,8.69,2.489,12.478,4.849
						c2.459,1.532,7.88,4.495,5.798,6.51c-13.248,12.828-26.672,20.931-41.232,27.126c17.434-1.028,34.848-2.392,52.219-4.17
						c14.643-2.251,29.137-5.52,42.791-11.427c13.333-5.589,26.766-11.01,39.807-17.259c4.229-3.107,8.316-6.387,12.41-9.732
						c22.136-17.902,47.056-31.991,72.495-44.724C441.833-496.698,353.451-549.906,252.703-549.906z M104.663-507.658
						c-22.945,14.292-43.688,31.813-61.577,51.914c6.476-2.107,12.932-4.22,19.395-6.375c18.489-5.073,37.165-12.159,56.49-13.496
						c2.68-0.186,5.385,0.069,8.07,0.101c8.26,1.214,15.23,4.704,21.464,9.359c6.167-3.711,12.592-6.085,19.293-7.63
						c-6.24-6.475-13.287-12.238-21.226-17.157c-4.058-2.191-7.98-4.658-12.173-6.578
						C124.82-501.903,114.845-505.148,104.663-507.658z M172.817-468.155c-0.992,0.322-1.993,0.643-3.764,1.22
						c-0.284,0.561-0.695,1.087-1.051,1.628c2.134-1.083,3.856-1.906,5.12-2.51C173.025-467.932,172.915-468.039,172.817-468.155z
						 M184.38-452.082c-4.405,0.103-8.861,0.263-13.462,0.474c0.634,1.287,1.244,2.43,1.662,3.255
						c4.78,9.453,10.137,18.579,15.462,27.737c1.662,2.548,3.164,5.155,4.442,7.798c0.537,0.94,1.096,1.873,1.627,2.815
						c1.811,3.292,3.687,6.56,5.528,9.867c-0.617-14.857-3.611-29.49-10.206-42.961C187.845-446.173,186.154-449.165,184.38-452.082
						z M91.167-449.404c-20.482,0.638-40.351,6.562-59.847,12.512c18.463,7.739,36.66,16.193,54.761,24.685
						c8.307,1.654,16.624,3.32,24.888,5.018c12.669,2.399,25.351,4.745,38.045,7.086c-4.685-7.495-10.572-14.731-14.784-20.311
						C122.449-433.703,110.027-447.899,91.167-449.404z M498.127-405.29c-10.016,2.464-19.801,5.853-29.33,9.969
						c-2.998,2.135-4.822,3.612-8.748,6.646c-23.379,19.903-50.555,34.391-77.615,48.691c-16.432,8.243-33.553,14.979-50.454,22.176
						c-13.934,5.857-28.746,8.814-43.673,10.648c-19.479,1.517-38.965,2.833-58.491,3.628c-0.496,0.028-0.996,0.042-1.492,0.068
						c6.079,2.915,12.375,5.221,19.023,6.849c10.251,2.085,20.738,2.283,31.161,2.374c8.972,0.009,17.95-0.047,26.922-0.034
						c12.035,0.059,24.078,0.131,36.113,0.067c8.86-0.071,17.722-0.155,26.583-0.203c6.789-0.056,13.555,0,20.345,0
						c6.333-0.66,12.366,1.131,18.548,2.102c10.254,1.541,19.359,7.865,28.482,12.512c14.247,7.821,28.791,15.147,44.148,20.514
						c11.483,3.648,23.489,4.86,35.468,5.29c2.245,0.032,3.617,0.218,5.358-0.067c4.2-2.499,8.423-4.967,12.647-7.426
						c0.073-2.614,0.136-5.236,0.136-7.866C533.256-318.668,520.497-365.01,498.127-405.29z M29.93-396.473
						c2.691,5.483,5.584,10.854,9.155,15.868c3.508,4.699,5.139,7.343,9.562,11.326c9.757,8.786,22.138,13.851,34.179,18.582
						c14.794,4.944,29.824,9.074,45.029,12.376c1.194-1.651,2.424-3.303,3.662-4.917c3.455-4.075,4.246-5.025,5.154-6.103
						c-22.054-12.745-44.591-24.644-67.612-35.57c-4.842-2.242-9.668-4.446-14.513-6.646c-3.098-0.577-6.198-1.155-9.291-1.763
						C40.132-394.329,35.038-395.388,29.93-396.473z M-7.979-373.214c-12.82,32.127-19.87,67.175-19.87,103.86
						c0,7.339,0.293,14.604,0.848,21.802l42.689,31.636c0,0,62.032-65.113,80.633-55.812c18.601,9.3-18.611,40.311,9.291,55.812
						s61.984,30.992,61.984,30.992l31.025,61.983l-20.515,3.153c1.23,1.822,1.9,3.052,1.9,3.052l15.496,9.324
						c0,0,21.715-0.01,62.017-12.411c40.302-12.4,0-0.014,0-40.317c0-40.3,68.189,6.206,68.189,6.206s12.396,18.606,15.496,49.607
						c3.1,31.001,21.715,27.896,40.316,37.197c9.373,4.687,27.394,10.963,44.961,18.004
						c60.851-48.097,101.324-120.88,106.268-203.174c-12.206,7.144-24.399,14.305-36.655,21.361
						c-5.597,3.223-11.391,4.158-17.767,3.357c-12.032-0.982-24.042-2.877-35.467-6.917c-15.336-5.887-29.956-13.322-44.556-20.82
						c-9.211-4.451-18.317-9.834-28.719-10.716c-5.946-1.085-11.851-2.113-17.938-1.627c-6.797-0.001-13.581,0.055-20.379,0
						c-8.669-0.049-17.338-0.138-26.007-0.204c-12.117-0.053-24.233,0.009-36.349,0.135c-9.02,0.071-18.041,0.219-27.059,0
						c-10.588-0.381-21.271-0.836-31.602-3.39c-9.962-2.88-19.384-6.948-28.414-12.071c-6.424-3.665-11.712-8.513-14.24-15.293
						c-6.421,1.599-12.843,3.172-19.295,4.647c-8.212,1.689-34.13,9.862-38.587-2.577c-0.503-1.406-0.281-2.954-0.407-4.443
						c0.798-3.36,1.846-6.64,3.052-9.833c-21.978-3.83-43.662-9.196-64.967-15.936c-12.79-4.791-25.823-9.829-36.112-19.125
						c-4.972-4.492-6.434-6.929-10.41-12.173C-2.547-362.769-5.373-367.935-7.979-373.214z M218.186-357.006
						c-2.693,4.13-5.337,8.287-7.596,12.681c-2.149,4.975-3.259,10.307-3.594,15.7c3.603,0.155,7.212,0.285,10.817,0.373
						c15.535-4.101,30.963-8.613,46.317-13.361c-1.582-0.734-3.326-1.529-5.459-2.475
						C245.321-348.91,231.821-353.16,218.186-357.006z M156.609-337.644c-0.716,1.387-1.392,2.782-2.035,4.204
						c4.831,0.731,9.652,1.402,14.512,1.966C164.651-333.346,160.59-335.417,156.609-337.644z M529.289-258.062
						c-1.511,0.863-3.032,1.714-4.544,2.577C526.301-256.231,527.809-257.164,529.289-258.062z M58.65-127.484
						c2.393,13.741,5.288,28.967,8.307,41.3c4.499-0.154,7.317-0.005,8.985,0.271c1.061-1.234,3.399-3.146,7.969-6.002
						c9.746-6.091,17.554-13.613,24.786-20.887c-3.081-0.905-7.019-2.147-12.376-3.932C89.746-118.926,74.92-123.062,58.65-127.484z
						 M66.957-86.184c-2.207,0.075-4.782,0.237-7.867,0.475c-7.441,0.573-13.499,0.515-18.446,0.033
						C92.1-26.332,168.052,11.232,252.703,11.232c34.567,0,67.678-6.283,98.265-17.733c-14.412-5.683-26.886-13.004-28.347-20.311
						c-3.101-15.501-15.492-49.622-30.992-68.223c-15.501-18.602-65.112,37.196-120.914,58.898
						C114.912-14.436,83.921-51.608,74.62-64.009C72.188-67.251,69.536-75.65,66.957-86.184z"/>
					<path id="path3260" fill="#C8AB37" stroke="#000000" stroke-opacity="0" d="M251.304-549.209
						c-17.022,0-33.69,1.499-49.878,4.408c29.041,0.053,52.998,1.571,52.998,6.442c0,12.4-24.821,21.7-24.821,21.7l24.821,18.616
						l27.906-15.496l108.505,65.102l55.778,6.205l26.211,1.457C421.466-506.747,341.314-549.209,251.304-549.209z M158.057-468.102
						c-27.701,0.151-55.541,13.461-55.541,13.461l-57.812-3.729c-45.907,49.965-73.953,116.6-73.953,189.747
						c0,10.725,0.623,21.289,1.797,31.703l43.165,17.903l89.889,6.172l83.718,58.932c0,0-49.621,15.471-46.521,27.872
						c3.1,12.4,83.719,68.222,83.719,68.222l89.888,15.497L291.619-8.211L201.696,1.08l-2.644,5.968
						c16.933,3.194,34.394,4.883,52.252,4.883c147.196,0,268.054-113.546,279.67-257.768c-6.177-8.084-10.91-16.355-13.055-22.785
						c-6.201-18.602-55.812-31.026-55.812-31.026s-124,6.22-167.402,3.12c-43.402-3.101-61.989-24.807-68.188-49.607
						c-6.201-24.801,3.08-61.998-24.821-102.3C191.234-463.549,174.678-468.192,158.057-468.102z"/>
					<path id="path3262" fill="#2B2200" fill-opacity="0.4804" stroke="#000000" stroke-opacity="0" d="M142.406-528.981
						C43.239-485.705-26.149-386.775-26.149-271.722c0,154.87,125.682,280.552,280.552,280.552
						c103.973,0,194.821-56.653,243.288-140.75c-47.896,45.888-112.872,74.088-184.391,74.088
						c-147.169,0-266.582-119.447-266.582-266.616C46.719-406.593,83.934-480.061,142.406-528.981z"/>
				</g>
				
					<path id="path3304" sodipodi:cx="-300" sodipodi:cy="898.07648" sodipodi:ry="345.71429" sodipodi:rx="345.71429" sodipodi:type="arc" fill="#D5FFF6" fill-opacity="0.1373" stroke="#000000" stroke-opacity="0" d="
					M970.281-416.337c0,207.171-167.945,375.116-375.117,375.116c-207.17,0-375.116-167.945-375.116-375.116l0,0
					c0-207.17,167.946-375.116,375.116-375.116C802.335-791.453,970.281-623.508,970.281-416.337L970.281-416.337z"/>
			</g>
			
				<path id="path3853" sodipodi:cx="-1651.4286" sodipodi:cy="429.50504" sodipodi:ry="554.28571" sodipodi:rx="554.28571" sodipodi:type="arc" fill="#C7EEF3" fill-opacity="0.2206" stroke="#FFFFFF" stroke-width="9.946" stroke-opacity="0" d="
				M674.99-1950.793c0,332.159-269.266,601.426-601.426,601.426c-332.157,0-601.425-269.267-601.425-601.426
				c0-332.157,269.268-601.424,601.425-601.424C405.724-2552.217,674.99-2282.95,674.99-1950.793z"/>
		</g>
	</g>
	
		<path id="path3319" sodipodi:cx="389.91888" sodipodi:cy="-93.150803" sodipodi:ry="523.25903" sodipodi:rx="1610.1831" sodipodi:type="arc" fill="#0B0017" fill-opacity="0" stroke="#FFDA2E" stroke-width="10" stroke-opacity="0.8529" d="
		M1536.178-1321.731c-26.805,312.417-827.885,498.815-1789.263,416.33c-961.377-82.485-1718.997-402.618-1692.193-715.034
		c26.805-312.418,827.885-498.815,1789.26-416.329C805.362-1954.28,1562.983-1634.148,1536.178-1321.731z"/>
	
		<path id="path3329" sodipodi:cx="389.91888" sodipodi:cy="-93.150803" sodipodi:ry="523.25903" sodipodi:rx="1610.1831" sodipodi:type="arc" fill="#0B0017" fill-opacity="0" stroke="#FFDA2E" stroke-width="10" stroke-opacity="0.8529" d="
		M2212.961-2044.839c115.731,290.05-875.75,773.751-2214.539,1080.376c-1338.788,306.626-2517.905,320.064-2633.638,30.014
		c-115.731-290.049,875.751-773.749,2214.539-1080.376C918.111-2321.45,2097.23-2334.888,2212.961-2044.839z"/>
</g>
<g>
	
		<radialGradient id="path5854_1_" cx="2945.7427" cy="-389.3004" r="1081.4191" gradientTransform="matrix(0.6829 0 0 -0.7632 -2696.3267 332.8439)" gradientUnits="userSpaceOnUse">
		<stop  offset="0" style="stop-color:#E2EBF7;stop-opacity:0.807"/>
		<stop  offset="1" style="stop-color:#FFF0FF;stop-opacity:0.0965"/>
	</radialGradient>
	
		<path id="path5854" sodipodi:cx="-6640" sodipodi:cy="5406.6479" sodipodi:ry="1062.8572" sodipodi:rx="1062.8572" sodipodi:type="arc" fill="url(#path5854_1_)" stroke="#FFFFFF" stroke-width="9.946" stroke-opacity="0" d="
		M50.469,629.949c0,453.68-329.108,821.461-735.084,821.461s-735.086-367.781-735.086-821.461
		c0-453.681,329.11-821.464,735.086-821.464S50.469,176.268,50.469,629.949L50.469,629.949z"/>
	<g id="g5845" transform="translate(2820.8866,-1642.815)">
		
			<path id="path5741" sodipodi:cx="-6640" sodipodi:cy="5406.6479" sodipodi:ry="1062.8572" sodipodi:rx="1062.8572" sodipodi:type="arc" fill="#87878D" stroke="#FFFFFF" stroke-width="9.946" stroke-opacity="0" d="
			M-2979.394,2267.811c0,340.658-247.119,616.814-551.956,616.814c-304.838,0-551.956-276.156-551.956-616.814
			c0-340.656,247.118-616.813,551.956-616.813C-3226.513,1650.998-2979.394,1927.155-2979.394,2267.811L-2979.394,2267.811z"/>
		<path id="path5753" fill="#005C8D" stroke="#FFFFFF" stroke-width="9.946" stroke-opacity="0" d="M-3529.454,1651.434
			c-159.343,0-302.985,75.594-403.768,196.408c23.488,25.424,45.271,45.013,59.545,48.999
			c47.479,13.268-23.738-119.392,273.012,79.582c296.75,198.974,154.31,132.653,332.361,238.771
			c85.887,51.19,188.341,43.724,290.052,20.803C-2993.281,1910.488-3234.455,1651.434-3529.454,1651.434z M-4044.402,2045.9
			c-23.894,68.995-37.001,143.973-37.001,222.358c0,340.481,247.269,616.808,551.949,616.808
			c263.549,0,484.146-206.756,538.902-482.949c-187.075,19.756-291.877,16.021-408.328,25.316
			c-166.18,13.266-178.052,26.525-356.102-145.916c-178.05-172.443-47.48-79.594-249.271-212.241
			C-4018.096,2060.176-4031.48,2052.459-4044.402,2045.9z"/>
		<g id="path5739" filter="url(#filter7287)">
			<path fill="#6F668D" d="M-3804.358,2201.496c-106.829,0-0.007,119.377-71.227,132.643
				c-71.221,13.266-154.301-13.275-154.301-13.275l-47.485,119.387l130.575,92.855c0,0,35.609,119.393,225.528,172.449
				c189.921,53.061,118.692,13.268,320.482-66.32c201.789-79.59-118.701-79.604-166.179-132.662
				c-47.48-53.059-35.607-92.854-35.607-185.709C-3602.572,2228.01-3697.527,2201.496-3804.358,2201.496z"/>
			<path opacity="0" fill="none" stroke="#FFFFFF" stroke-width="9.946" d="M-3804.358,2201.496
				c-106.829,0-0.007,119.377-71.227,132.643c-71.221,13.266-154.301-13.275-154.301-13.275l-47.485,119.387l130.575,92.855
				c0,0,35.609,119.393,225.528,172.449c189.921,53.061,118.692,13.268,320.482-66.32c201.789-79.59-118.701-79.604-166.179-132.662
				c-47.48-53.059-35.607-92.854-35.607-185.709C-3602.572,2228.01-3697.527,2201.496-3804.358,2201.496z"/>
		</g>
		<g id="path5825" filter="url(#filter7267)">
			<path fill="#6F668D" d="M-3615.837,1657.951c-37.869,0.023-53.505,16.263-81.695,79.271
				c-31.383,70.145-57.582,18.573-109.445-5.295c-41.03,31.382-78.079,68.786-110.126,111.079
				c82.27-0.747,148.418-3.208,149.042-11.315l82.408,197.351c0,0,94.961,66.337,249.271,39.806
				c154.312-26.529,213.647-39.808,272.997-66.338c59.35-26.533,94.965-92.848,47.484-106.113
				c-47.479-13.262-94.964,39.804-213.665-13.255c-118.699-53.063-130.564,26.527-118.696-92.855
				c11.872-119.385,94.958-106.122-47.483-119.387C-3553.613,1665.512-3589.928,1657.935-3615.837,1657.951z"/>
			<path opacity="0" fill="none" stroke="#FFFFFF" stroke-width="9.946" d="M-3615.837,1657.951
				c-37.869,0.023-53.505,16.263-81.695,79.271c-31.383,70.145-57.582,18.573-109.445-5.295
				c-41.03,31.382-78.079,68.786-110.126,111.079c82.27-0.747,148.418-3.208,149.042-11.315l82.408,197.351
				c0,0,94.961,66.337,249.271,39.806c154.312-26.529,213.647-39.808,272.997-66.338c59.35-26.533,94.965-92.848,47.484-106.113
				c-47.479-13.262-94.964,39.804-213.665-13.255c-118.699-53.063-130.564,26.527-118.696-92.855
				c11.872-119.385,94.958-106.122-47.483-119.387C-3553.613,1665.512-3589.928,1657.935-3615.837,1657.951z"/>
		</g>
		<path id="path5830" fill="#6F668D" stroke="#FFFFFF" stroke-width="9.946" stroke-opacity="0" d="M-2982.127,2288.769
			c-25.546,16.444-50.514,33.737-74.472,52.61c-10.511,1.758-21.183,2.67-31.824,3.334c-23.691,0.979-47.396,0.688-71.099,0.582
			c-63.144,3.85-127.553,45.803-159.542,106.764c-1.431,3.084-2.616,6.176-3.603,9.266c-20.583,16.4-37.067,37.795-46.658,66.123
			c-42.376,19.771-78.837,50.939-76.908,102.143c10.051,27.049,34.374,32.65,57.84,36.469c9.58,1.072,19.188,1.664,28.805,1.994
			c7.815,17.045,17.756,32.936,27.816,48.566c20.38,26.965,45.2,48.836,72.752,65.852c9.322,5.348,18.933,9.754,28.708,13.619
			c146.914-108.469,244.771-293.332,248.135-503.805C-2982.157,2291.113-2982.14,2289.941-2982.127,2288.769z M-3038.927,2380.822
			c1.336,0.363,2.593,0.826,3.765,1.396c-5.954,3.613-11.815,7.383-17.542,11.371
			C-3048.057,2389.389-3043.463,2385.141-3038.927,2380.822z M-3090.275,2425.037c-11.529,11.725-21.875,24.75-30.574,39.264
			c-1.032,0.068-2.059,0.129-3.101,0.182c-13.79,1.141-32.272,5.521-51.234,12.387
			C-3145.349,2463.459-3117.014,2445.602-3090.275,2425.037z M-3063.271,2434.014c-27.62,18.75-33.263,23.607-9.379,3.771
			C-3070.993,2436.842-3067.306,2435.227-3063.271,2434.014z M-3305.806,2445.547c-4.071,2.232-6.161,3.307-6.409,3.393
			C-3312.124,2448.836-3309.707,2447.496-3305.806,2445.547z M-3413.546,2593.498c-10.773,6.838-15.713,9.975-0.065,0.02
			C-3413.589,2593.51-3413.569,2593.506-3413.546,2593.498z M-3198.032,2713.121c1.185,0.484,2.39,0.916,3.603,1.34
			C-3215.038,2731.164-3234.425,2739.088-3198.032,2713.121z"/>
		
			<path id="path5737" sodipodi:cx="-6640" sodipodi:cy="5406.6479" sodipodi:ry="1062.8572" sodipodi:rx="1062.8572" sodipodi:type="arc" fill="#8388CD" fill-opacity="0.5098" stroke="#FFFFFF" stroke-width="9.946" stroke-opacity="0" d="
			M-2976.149,2269.316c0,340.656-247.118,616.814-551.956,616.814c-304.836,0-551.956-276.158-551.956-616.814
			c0-340.658,247.119-616.816,551.956-616.816C-3223.267,1652.5-2976.149,1928.658-2976.149,2269.316L-2976.149,2269.316z"/>
		<path id="path5840" fill-opacity="0.348" stroke="#FFFFFF" stroke-width="9.9891" stroke-opacity="0" d="M-3757.625,1704.498
			c-191.204,97.749-324.169,313.439-324.169,563.635c0,341.957,248.357,619.482,554.358,619.482
			c223.889,0,416.897-148.57,504.369-362.244c-70.123,35.848-148.065,55.844-230.173,55.844
			c-305.999,0-554.356-277.541-554.356-619.496C-3807.597,1869.964-3789.702,1782.858-3757.625,1704.498z"/>
	</g>
</g>
<g id="g6762" transform="matrix(0.7634594,0,0,0.7634594,1658.1305,392.67506)">
	
		<radialGradient id="path6750_1_" cx="-1514.9352" cy="5413.6494" r="483.6098" gradientTransform="matrix(0.7635 0 0 -0.7635 1618.3085 589.7351)" gradientUnits="userSpaceOnUse">
		<stop  offset="0" style="stop-color:#FFFFFF"/>
		<stop  offset="1" style="stop-color:#FFFFFF;stop-opacity:0"/>
	</radialGradient>
	
		<path id="path6750" sodipodi:cx="5885.7144" sodipodi:cy="5886.6479" sodipodi:ry="674.28571" sodipodi:rx="674.28571" sodipodi:type="arc" opacity="0.9537" fill="url(#path6750_1_)" stroke="#FFFFFF" stroke-width="15" stroke-opacity="0.0686" enable-background="new    " d="
		M940.006-3543.369c0.113,264.154-213.933,478.38-478.086,478.493s-478.38-213.933-478.493-478.086c0-0.137,0-0.272,0-0.407
		c-0.111-264.153,213.933-478.381,478.086-478.494c264.152-0.113,478.38,213.934,478.493,478.086
		C940.006-3543.641,940.006-3543.504,940.006-3543.369z"/>
	
		<path id="path5919" sodipodi:cx="5874.2856" sodipodi:cy="5692.3623" sodipodi:ry="457.14285" sodipodi:rx="457.14285" sodipodi:type="arc" fill="#2957E5" stroke="#FFFFFF" stroke-width="15" stroke-opacity="0" d="
		M790.034-3555.528c0,179.084-145.179,324.264-324.264,324.264c-179.087,0-324.267-145.18-324.267-324.264
		c0-179.087,145.18-324.265,324.267-324.265C644.856-3879.794,790.034-3734.615,790.034-3555.528z"/>
	<path id="path5921" fill="#A0892C" stroke="#FFFFFF" stroke-width="15" stroke-opacity="0" d="M465.76-3879.794
		c-95.977,0-182.25,41.767-241.636,108.108c14.608,2.786,26.821,5.385,26.821,5.385s-4.043,36.476-16.204,52.689
		c-12.161,16.215-32.43,40.535-32.43,60.802s16.217,72.954,60.805,77.009c44.585,4.052,93.209,64.858,93.209,64.858
		s-36.482,56.746-4.056,56.746s60.817,16.213,81.085,0c20.268-16.214,77.006-259.415,77.006-259.415l40.519-89.176
		c0,0,44.59,8.112,89.177,36.487c36.815,23.426,48.735,66.109,51.782,80.309c-1.05-10.04,1.585-32.595,45.508-35.732
		c2.387-0.171,4.281-0.807,5.742-1.884C686.197-3817.223,583.236-3879.794,465.76-3879.794z M691.837-3685.992
		c0.306,2.93,0.909,4.811,0.909,4.811S692.479-3682.995,691.837-3685.992z"/>
	
		<path id="path5925" opacity="0.9619" fill="#FFFFFF" stroke="#FFFF45" stroke-width="15" stroke-opacity="0" enable-background="new    " d="
		M644.108-3425.827c-40.53,0-40.519,16.208-68.893,20.261c-28.374,4.051-81.069,8.106-89.176,0c0,0-48.65,32.428-68.917,32.428
		c-20.264,0-68.891,0.017-68.891,20.282c0,20.265,24.316,20.261-4.057,20.261c-28.372,0-77.007,24.315-77.007,24.315l4.458,18.333
		c53.846,39.804,120.42,63.33,192.472,63.33c129.884,0,242.02-76.478,293.771-186.842c-16.166,1.69-28.173,4.275-32.695,7.894
		c-20.267,16.212-60.783,48.654-60.783,48.654l-8.111-44.598C656.279-3401.51,684.642-3425.827,644.108-3425.827z"/>
	<path id="path5929" fill="#A0892C" stroke="#FFFF54" stroke-width="15" stroke-opacity="0" d="M761.658-3628.489
		c-16.214,0-113.493,28.372-113.493,28.372l-32.43,12.168l-12.147,64.838c0,0-68.921,20.273-44.601,36.487
		c24.321,16.212,137.811,32.428,137.811,32.428l36.486-60.802c0,0,56.746-28.367,56.746-48.635
		C790.031-3583.897,777.87-3628.489,761.658-3628.489z"/>
	
		<path id="path6760" sodipodi:cx="5874.2856" sodipodi:cy="5692.3623" sodipodi:ry="457.14285" sodipodi:rx="457.14285" sodipodi:type="arc" fill="#FFFFFF" fill-opacity="0.4265" stroke="#FFFF45" stroke-width="15" stroke-opacity="0" d="
		M797.911-3553.503c0,189.035-149.612,342.277-334.167,342.277c-184.558,0-334.17-153.242-334.17-342.277
		c0-189.032,149.612-342.274,334.17-342.274C648.299-3895.778,797.911-3742.536,797.911-3553.503z"/>
	<g id="g5988" opacity="0.9537" filter="url(#filter6744)">
		<g>
			<path opacity="0.7696" fill="#FFFFFF" d="M182.799-3709.853c-11.305,20.146-20.52,41.62-27.354,64.126
				c3.483,0.576,6.964,1.159,10.442,1.752c106.715,16.406,214.717,21.186,322.434,26.18c59.432,3.805,119.431,2.658,178.506,11.169
				c7.654,1.104,15.241,2.721,22.853,4.082c21.131,4.526,42.756,9.422,60.649,22.231c8.834,6.324,13.364,11.531,21.057,19.264
				c6.171,7.826,12.254,15.708,18.356,23.562c0.197-4.638,0.286-9.297,0.286-13.986c0-42.381-8.134-82.871-22.941-119.989
				c-2.68-0.326-5.361-0.635-8.047-0.885c-62.305-5.829-125.066-3.642-187.528-5.454c-109.22-2.469-218.795-4.707-326.999-21.278
				C220.142-3703.307,201.658-3706.273,182.799-3709.853z"/>
			<path opacity="0.0686" fill="none" stroke="#FFFFFF" stroke-width="15" d="M182.799-3709.853
				c-11.305,20.146-20.52,41.62-27.354,64.126c3.483,0.576,6.964,1.159,10.442,1.752c106.715,16.406,214.717,21.186,322.434,26.18
				c59.432,3.805,119.431,2.658,178.506,11.169c7.654,1.104,15.241,2.721,22.853,4.082c21.131,4.526,42.756,9.422,60.649,22.231
				c8.834,6.324,13.364,11.531,21.057,19.264c6.171,7.826,12.254,15.708,18.356,23.562c0.197-4.638,0.286-9.297,0.286-13.986
				c0-42.381-8.134-82.871-22.941-119.989c-2.68-0.326-5.361-0.635-8.047-0.885c-62.305-5.829-125.066-3.642-187.528-5.454
				c-109.22-2.469-218.795-4.707-326.999-21.278C220.142-3703.307,201.658-3706.273,182.799-3709.853z"/>
		</g>
		<g>
			<g opacity="0.7696">
				<path fill="#FFFFFF" d="M779.438-3561.367c-0.298,0.014-0.587,0.082-0.888,0.221c-23.539,10.879-140.833,40.427-111.74,73.436
					c0.274,0.313,0.586,0.585,0.908,0.842c-22.088,13.073-43.866,27.137-66.744,41.098c-3.583,2.187-1.764,6.281-1.284,9.11
					c1.358,2.164,2.405,4.559,4.078,6.496c4.448,5.143,21.608,9.758,28.128,12.235c0.82,0.315,17.536,5.898,14.344,9.665
					c-0.585,0.689-1.6,0.889-2.352,1.398c-1.218,0.824-2.356,1.724-3.546,2.593c-4.202,5.636-14.67,8.129-16.402,15.67
					c-1.347,5.864,2.02,8.715,4.921,13.41c2.182,1.498,4.147,3.346,6.538,4.479c11.808,5.583,37.664,4.844,50.985,5.208
					c14.173-0.019,28.365,0.927,42.536,0.82c40.083-53.185,64.203-119.064,65.149-190.519c-2.762-0.941-5.54-1.85-8.268-2.882
					C783.65-3558.901,781.533-3561.478,779.438-3561.367z M774.984-3555.715c0.512-0.164,1.343,1.081,1.86,1.595
					c0.614,0.606,1.658,1.292,2.661,1.994c-0.972-0.528-1.932-1.085-2.883-1.662c-0.609-0.588-2.313-1.049-1.837-1.752
					C774.842-3555.624,774.909-3555.693,774.984-3555.715z M632.807-3442.733c-5.754,3.318-11.512,6.634-17.266,9.952
					c-2.439,1.394,4.643-3.172,7.07-4.587C627.038-3439.954,629.817-3441.367,632.807-3442.733z"/>
			</g>
			<g opacity="0.0686">
				<path fill="none" stroke="#FFFFFF" stroke-width="15" d="M779.438-3561.367c-0.298,0.014-0.587,0.082-0.888,0.221
					c-23.539,10.879-140.833,40.427-111.74,73.436c0.274,0.313,0.586,0.585,0.908,0.842c-22.088,13.073-43.866,27.137-66.744,41.098
					c-3.583,2.187-1.764,6.281-1.284,9.11c1.358,2.164,2.405,4.559,4.078,6.496c4.448,5.143,21.608,9.758,28.128,12.235
					c0.82,0.315,17.536,5.898,14.344,9.665c-0.585,0.689-1.6,0.889-2.352,1.398c-1.218,0.824-2.356,1.724-3.546,2.593
					c-4.202,5.636-14.67,8.129-16.402,15.67c-1.347,5.864,2.02,8.715,4.921,13.41c2.182,1.498,4.147,3.346,6.538,4.479
					c11.808,5.583,37.664,4.844,50.985,5.208c14.173-0.019,28.365,0.927,42.536,0.82c40.083-53.185,64.203-119.064,65.149-190.519
					c-2.762-0.941-5.54-1.85-8.268-2.882C783.65-3558.901,781.533-3561.478,779.438-3561.367z M774.984-3555.715
					c0.512-0.164,1.343,1.081,1.86,1.595c0.614,0.606,1.658,1.292,2.661,1.994c-0.972-0.528-1.932-1.085-2.883-1.662
					c-0.609-0.588-2.313-1.049-1.837-1.752C774.842-3555.624,774.909-3555.693,774.984-3555.715z M632.807-3442.733
					c-5.754,3.318-11.512,6.634-17.266,9.952c-2.439,1.394,4.643-3.172,7.07-4.587
					C627.038-3439.954,629.817-3441.367,632.807-3442.733z"/>
			</g>
		</g>
		<g>
			<g opacity="0.7696">
				<path fill="#FFFFFF" d="M647.178-3824.289c-11.772,0.324-23.542,0.623-35.313,0.908c-20.282-0.125-24.245-0.253-43.113-0.022
					c-4.376,0.055-9.229-1.736-13.121,0.266c-37.605,19.338-74.465,40.203-110.324,62.62c-8.483,0.205-16.91,0.326-25.114,0.644
					c-46.481-2.158-99.846-3.496-143.994-19.617c-5.568-2.034-10.801-4.874-16.204-7.317c-4.682-3.116-8.715-5.956-12.213-8.71
					c-26.258,23.867-48.589,51.985-65.901,83.257c26.127,7.885,53.677,10.453,80.731,12.725c22.804,1.912,45.03,2.937,67.874,4.165
					c36.659,0.417,74.857,4.633,109.878-8.556c-11.868,9.011,69.915-18.088,102.699-53.442c57.003-4.386,114.144-6.76,171.324-6.274
					C694.943-3786.838,672.314-3807.281,647.178-3824.289z M553.634-3807.331c1.993-0.087,4.468,0.217,3.391,0.908
					c-1.848,1.189-3.724,2.356-5.586,3.524c-0.225-0.605-0.448-1.228-0.663-1.839c0.391-0.793,0.318-2.137,1.174-2.373
					C552.362-3807.221,552.971-3807.303,553.634-3807.331z"/>
			</g>
			<g opacity="0.0686">
				<path fill="none" stroke="#FFFFFF" stroke-width="15" d="M647.178-3824.289c-11.772,0.324-23.542,0.623-35.313,0.908
					c-20.282-0.125-24.245-0.253-43.113-0.022c-4.376,0.055-9.229-1.736-13.121,0.266c-37.605,19.338-74.465,40.203-110.324,62.62
					c-8.483,0.205-16.91,0.326-25.114,0.644c-46.481-2.158-99.846-3.496-143.994-19.617c-5.568-2.034-10.801-4.874-16.204-7.317
					c-4.682-3.116-8.715-5.956-12.213-8.71c-26.258,23.867-48.589,51.985-65.901,83.257c26.127,7.885,53.677,10.453,80.731,12.725
					c22.804,1.912,45.03,2.937,67.874,4.165c36.659,0.417,74.857,4.633,109.878-8.556c-11.868,9.011,69.915-18.088,102.699-53.442
					c57.003-4.386,114.144-6.76,171.324-6.274C694.943-3786.838,672.314-3807.281,647.178-3824.289z M553.634-3807.331
					c1.993-0.087,4.468,0.217,3.391,0.908c-1.848,1.189-3.724,2.356-5.586,3.524c-0.225-0.605-0.448-1.228-0.663-1.839
					c0.391-0.793,0.318-2.137,1.174-2.373C552.362-3807.221,552.971-3807.303,553.634-3807.331z"/>
			</g>
		</g>
		<g>
			<g opacity="0.7696">
				<path fill="#FFFFFF" d="M152.605-3537.54l-17.047,11.417c5.233,45.367,19.856,87.876,41.851,125.572
					c23.381,6.524,47.737,8.671,71.997,8.912l-43.69,32.074c2.6,3.206,5.26,6.363,7.98,9.464c14.187-1.488,28.328-3.377,42.471-5.23
					c27.313-3.45,54.757-4.848,82.238-6.228c2.732-0.07,24.204-0.166,26.266-1.31c38.194-21.148,75.879-43.215,113.029-66.143
					c1.738-1.077,2.226-3.479,2.905-5.411c0.692-1.985,0.789-4.139,1.173-6.205c-1.195-20.246-11.487-25.932-30.745-27.908
					c-31.203,0.714-62.268,4.256-93.41,6.16c-30.331,1.16-61.04-0.889-90.306-9.464c-25.565-9.093-49.349-21.633-72.24-36.175
					C180.634-3517.427,166.715-3527.662,152.605-3537.54z M368.684-3386.1c-0.21,0.582-0.478,1.186-0.821,1.841
					c-1.051,0.647-2.011,1.471-3.147,1.952c-1.422,0.601-5.777,2.062-4.456,1.265C363.061-3382.74,365.875-3384.413,368.684-3386.1z
					"/>
			</g>
			<g opacity="0.0686">
				<path fill="none" stroke="#FFFFFF" stroke-width="15" d="M152.605-3537.54l-17.047,11.417
					c5.233,45.367,19.856,87.876,41.851,125.572c23.381,6.524,47.737,8.671,71.997,8.912l-43.69,32.074
					c2.6,3.206,5.26,6.363,7.98,9.464c14.187-1.488,28.328-3.377,42.471-5.23c27.313-3.45,54.757-4.848,82.238-6.228
					c2.732-0.07,24.204-0.166,26.266-1.31c38.194-21.148,75.879-43.215,113.029-66.143c1.738-1.077,2.226-3.479,2.905-5.411
					c0.692-1.985,0.789-4.139,1.173-6.205c-1.195-20.246-11.487-25.932-30.745-27.908c-31.203,0.714-62.268,4.256-93.41,6.16
					c-30.331,1.16-61.04-0.889-90.306-9.464c-25.565-9.093-49.349-21.633-72.24-36.175
					C180.634-3517.427,166.715-3527.662,152.605-3537.54z M368.684-3386.1c-0.21,0.582-0.478,1.186-0.821,1.841
					c-1.051,0.647-2.011,1.471-3.147,1.952c-1.422,0.601-5.777,2.062-4.456,1.265C363.061-3382.74,365.875-3384.413,368.684-3386.1z
					"/>
			</g>
		</g>
		<g>
			<g opacity="0.7696">
				<path fill="#FFFFFF" d="M487.618-3619.084c-9.151,0.009-18.419,1.135-27.288,1.309c-15.305,0.851-30.57,1.627-45.817,3.258
					c-0.906,0.097-17.991,1.843-20.238,3.058c-38.678,20.938-76.501,43.41-114.758,65.104l118.923-46.549
					c-48.91,29.343-80.938,47.746-100.9,58.763c6.305-2.539,12.947-4.836,19.129-6.251c15.375-3.523,31.097-4.72,46.771-5.984
					c15.397-0.07,33.421-3.441,47.614,4.298c-12.373,7.089-24.738,14.183-37.131,21.237c-3.786,7.871-1.049,15.274,3.858,21.367
					c-22.51,13.476-44.826,28.263-69.649,42.936l82.661-32.982c2.473,1.586,4.744,3.037,5.34,3.259
					c-20.243,11.739-40.495,23.485-60.779,35.154c4.817-2.246,9.773-4.28,14.651-6.227c9.395-3.96,18.783-7.864,28.372-11.328
					c5.072-1.833,10.608-2.609,15.318-5.231c38.252-21.298,76.072-43.363,114.114-65.036c0.266-2.337,1.123-4.677,0.798-7.006
					c-0.72-5.156-3.707-8.443-7.471-10.972c-2.061,1.05-4.167,2.113-6.428,3.216c2.192-1.224,4.329-2.401,6.164-3.417
					c-2.841-1.859-6.098-3.299-9.155-4.787c9.806-5.723,19.606-11.43,29.437-17.112c7.722-7.401,7.897-15.591,3.634-23.32
					c-7.851,4.969-18.425,10.697-28.063,14.077c-3.216,1.125-6.763,1.452-9.753,3.08c16.143-9.828,27.697-16.484,35.534-20.659
					c-0.826-1.125-1.714-2.232-2.705-3.324c-4.394-3.461-5.722-5.088-11.283-6.981
					C501.788-3618.429,494.735-3619.089,487.618-3619.084z M522.507-3605.829c0.849,1.157,1.63,2.319,2.282,3.502
					C538.125-3610.764,543.489-3617.003,522.507-3605.829z M500.873-3557.108c0.093,0.064,0.173,0.138,0.263,0.201
					C518.353-3565.676,526.856-3571.46,500.873-3557.108z M297.539-3534.141C270.864-3523.409,250.414-3508.138,297.539-3534.141z
					 M492.67-3566.594c-1.594,0.906-3.193,1.801-4.789,2.705C485.847-3565.42,488.874-3565.784,492.67-3566.594z M414.4-3539.196
					c2.847,4.197-4.213,3.886-7.716,5.188c-0.266,0.098-0.522,0.219-0.774,0.354C408.818-3535.555,411.611-3537.377,414.4-3539.196z
					 M426.083-3503.619c-9.945,5.75-19.879,11.529-29.814,17.29c-0.219-0.301-1.11-1.115-2.971-2.682
					c-0.414-0.347-0.833-0.689-1.264-1.02L426.083-3503.619z M335.243-3451.062c-2.911,1.36-5.761,2.797-8.532,4.368
					c-1.756,0.993-6.761,4.436-5.01,3.433C326.22-3445.847,330.727-3448.464,335.243-3451.062z"/>
			</g>
			<g opacity="0.0686">
				<path fill="none" stroke="#FFFFFF" stroke-width="15" d="M487.618-3619.084c-9.151,0.009-18.419,1.135-27.288,1.309
					c-15.305,0.851-30.57,1.627-45.817,3.258c-0.906,0.097-17.991,1.843-20.238,3.058c-38.678,20.938-76.501,43.41-114.758,65.104
					l118.923-46.549c-48.91,29.343-80.938,47.746-100.9,58.763c6.305-2.539,12.947-4.836,19.129-6.251
					c15.375-3.523,31.097-4.72,46.771-5.984c15.397-0.07,33.421-3.441,47.614,4.298c-12.373,7.089-24.738,14.183-37.131,21.237
					c-3.786,7.871-1.049,15.274,3.858,21.367c-22.51,13.476-44.826,28.263-69.649,42.936l82.661-32.982
					c2.473,1.586,4.744,3.037,5.34,3.259c-20.243,11.739-40.495,23.485-60.779,35.154c4.817-2.246,9.773-4.28,14.651-6.227
					c9.395-3.96,18.783-7.864,28.372-11.328c5.072-1.833,10.608-2.609,15.318-5.231c38.252-21.298,76.072-43.363,114.114-65.036
					c0.266-2.337,1.123-4.677,0.798-7.006c-0.72-5.156-3.707-8.443-7.471-10.972c-2.061,1.05-4.167,2.113-6.428,3.216
					c2.192-1.224,4.329-2.401,6.164-3.417c-2.841-1.859-6.098-3.299-9.155-4.787c9.806-5.723,19.606-11.43,29.437-17.112
					c7.722-7.401,7.897-15.591,3.634-23.32c-7.851,4.969-18.425,10.697-28.063,14.077c-3.216,1.125-6.763,1.452-9.753,3.08
					c16.143-9.828,27.697-16.484,35.534-20.659c-0.826-1.125-1.714-2.232-2.705-3.324c-4.394-3.461-5.722-5.088-11.283-6.981
					C501.788-3618.429,494.735-3619.089,487.618-3619.084z M522.507-3605.829c0.849,1.157,1.63,2.319,2.282,3.502
					C538.125-3610.764,543.489-3617.003,522.507-3605.829z M500.873-3557.108c0.093,0.064,0.173,0.138,0.263,0.201
					C518.353-3565.676,526.856-3571.46,500.873-3557.108z M297.539-3534.141C270.864-3523.409,250.414-3508.138,297.539-3534.141z
					 M492.67-3566.594c-1.594,0.906-3.193,1.801-4.789,2.705C485.847-3565.42,488.874-3565.784,492.67-3566.594z M414.4-3539.196
					c2.847,4.197-4.213,3.886-7.716,5.188c-0.266,0.098-0.522,0.219-0.774,0.354C408.818-3535.555,411.611-3537.377,414.4-3539.196z
					 M426.083-3503.619c-9.945,5.75-19.879,11.529-29.814,17.29c-0.219-0.301-1.11-1.115-2.971-2.682
					c-0.414-0.347-0.833-0.689-1.264-1.02L426.083-3503.619z M335.243-3451.062c-2.911,1.36-5.761,2.797-8.532,4.368
					c-1.756,0.993-6.761,4.436-5.01,3.433C326.22-3445.847,330.727-3448.464,335.243-3451.062z"/>
			</g>
		</g>
		<g>
			<path opacity="0.7696" fill="#FFFFFF" d="M461.713-3879.8c-52.091,0-101.315,12.322-144.946,34.181
				c18.322,4.872,36.294,11.015,54.551,16.139c21.349,5.288,40.051,8.52,62.067,4.942c8.744-1.668,18.486-3.244,26.378-7.669
				c12.118-6.796,24.229-13.604,36.33-20.438c1.834,0.038,1.442,0.027,4.322,0.09l16.405-11.86
				c4.656-2.656,9.297-5.329,13.943-8.002C508.508-3877.25,485.409-3879.8,461.713-3879.8z"/>
			<path opacity="0.0686" fill="none" stroke="#FFFFFF" stroke-width="15" d="M461.713-3879.8
				c-52.091,0-101.315,12.322-144.946,34.181c18.322,4.872,36.294,11.015,54.551,16.139c21.349,5.288,40.051,8.52,62.067,4.942
				c8.744-1.668,18.486-3.244,26.378-7.669c12.118-6.796,24.229-13.604,36.33-20.438c1.834,0.038,1.442,0.027,4.322,0.09
				l16.405-11.86c4.656-2.656,9.297-5.329,13.943-8.002C508.508-3877.25,485.409-3879.8,461.713-3879.8z"/>
		</g>
	</g>
</g>
</svg>
